<?xml version="1.0" encoding="UTF-8"?>
<svg id="Layer_2" xmlns="http://www.w3.org/2000/svg" version="1.1" viewBox="0 0 660 207">
  <!-- Generator: Adobe Illustrator 30.2.1, SVG Export Plug-In . SVG Version: 2.1.1 Build 1)  -->
  <defs>
    <style>
      .st0 {
        fill: #231f20;
      }

      .st1 {
        isolation: isolate;
      }

      .st2 {
        fill: #1d1d1b;
      }
    </style>
  </defs>
  <g>
    <path class="st0" d="M626.2,88.5c-3.9.1-7.6-1.4-10.3-4.1l42-24.3c1.3-.7,1.7-2.3,1-3.5h0c-15.5-32.9-65-24.5-65.5,12.7-1.2,25.5,28,42.2,49.8,29.8,2.7-1.1,14.2-10,11.5-12.9h0l-10.2-6.4c-4.4,5.6-11.1,8.8-18.2,8.7h0ZM609.3,62.5c4.4-11,21-15.7,29.1-6.2l-29.5,17.3c-1.4-3.6-1.2-7.5.4-11h0Z"/>
    <path class="st0" d="M484.2,101.9h12.5c.7,0,1.3-.6,1.3-1.3h0v-51.1c0-.7-.6-1.3-1.4-1.3-.2,0-.4,0-.5.1l-13.1,7.5v44.6c0,.7.5,1.4,1.2,1.4h0Z"/>
    <path class="st0" d="M566.1,43.1c-19.7-18.5-54.5,0-52.7,26.4-1,18.1,15.1,34.5,33.3,33.6,7.3,2,28.4-13,34.5-15.9V1.3c0-.7-.6-1.3-1.4-1.3-.2,0-.4,0-.5.1l-13.2,7.5v35.4h0ZM560.7,82.8c-18,17.4-43.7-8.8-27-26.8,18.3-17.3,43.7,8.3,26.9,26.8h0Z"/>
    <g>
      <path class="st0" d="M444.5,14.7h15.1V1.3c0-.7-.6-1.3-1.3-1.3h-44.2c-.7,0-1.3.6-1.3,1.3v12.1c-1.3,2.9,31,.6,31.7,1.3h0Z"/>
      <path class="st0" d="M490.2,0h-4.9s-25.6,14.7-25.7,14.7c-.2,0-.7.3-.7.3-.3.1-14.4,8.3-14.4,8.3v70.8l13.2,7.7c.6.3,1.5,0,1.7-.6.4-.4,0-86,.1-86.5.9-.7,32.8,1.6,31.7-1.3V1.3c0-.7-.5-1.2-1.2-1.3h0Z"/>
    </g>
  </g>
  <g class="st1">
    <path class="st0" d="M92.1,118.9h6.7c.1,0,.9,1.6,1.3,2.5,8.7,24.7,17.4,49.4,26.2,74.1,8.4-25.6,16.8-51.2,25.2-76.8h4.9l25.2,76.8,27-76.6h6.6l-31.2,86.6h-5.1l-25.2-74.7-25.2,74.7h-5.1l-31.2-86.6h0Z"/>
    <path class="st0" d="M255.8,118.3h6.1l40.1,86.6h-7l-10.9-24.1h-50.8l-10.9,24.1h-6.6l40.1-86.6h0ZM281.4,175.1l-22.6-49.8-22.7,49.8h45.4Z"/>
    <path class="st0" d="M320.3,118.9h36.1c10.6,0,19.1,3.3,24.2,8.5,4,4,6.5,9.8,6.5,16v.3c0,14.4-10.7,22.6-25.2,24.6l28.4,36.8h-8.1l-27.4-35.7h-28.1v35.7h-6.4v-86.1h0ZM355.6,163.5c14.4,0,25.1-7.2,25.1-19.7v-.3c0-11.6-9.1-18.8-24.7-18.8h-29.4v38.7h29,0Z"/>
    <path class="st0" d="M409.1,118.9h28.6c27,0,45.7,18.5,45.7,42.8v.3c0,24.2-18.7,43-45.7,43h-28.6v-86.1ZM415.5,124.8v74.3h22.3c23.9,0,39.1-16.3,39.1-36.9v-.3c0-20.4-15.1-37.1-39.1-37.1,0,0-22.3,0-22.3,0Z"/>
    <path class="st0" d="M505.3,118.9h61.2v5.9h-54.8v33.8h49.3v5.9h-49.3v34.6h55.5v5.9h-61.8v-86h0Z"/>
    <path class="st0" d="M587.6,118.9h6l59.4,74.8v-74.8h6.1v86h-4.8l-60.6-76.5v76.5h-6.1v-86h0Z"/>
  </g>
  <path class="st2" d="M102.1,127.5c-.2,2.1-4,2.7-5.5,1.5-.5-.4-.8-1-1.1-1.7-4.2-15.3-18.7-19.1-33.2-23-8.1-2.3-17.2-4.9-25.2-7.2-7.7-2.4-14.9-6.1-22-10.4-1.1-.6-2.3-.9-3,0-.4.5-.4,1.3-.3,2.1,4.7,20.4,31.5,27.2,49.1,31.8,1.8.4,3.8,2.2,3.7,4-.7,6.3-22.9-3.2-28.4-5.3-2.5-1.1-4.8-2-6.6-2.8-2.3-1.1-4,.1-3.2,2.6,4.3,11.7,20.4,18.6,32,20.6,3.2.5,9,1.5,11.6,1.9.6.1,1.1.2,1.7.5,1.4.6,2.8,2.5,1.7,4-2.3,2.8-9.1,1.5-12.6.7-2.3-.6-8.4-2.1-12-3-1-.2-1.6-.5-2.3-.4-.9.2-1.6,1.2-1.4,2.1.8,3.3,3.6,5.9,6.2,8,1.9,1.4,3.8,2.5,6.1,3.5,11.1,5,21.7,2.7,23.5,6.2.4.8.1,1.7-.8,2.5-2.5,1.7-5.6,1.3-8.5,1.4-1.2,0-2.2-.1-3.3-.3-14.1-2.8-29.1-10.1-31.8-25.7-.2-1.7-.7-3.4-2.2-4.4-8.5-6.2-15.4-14-16-24.7,0-1-.1-2.2-.6-3-.4-.7-1.1-1.3-1.8-1.8-7.6-6.4-10.7-17.5-12.7-26.7,0-1.3-.2-2.7.2-3.9.4-1.3,1.4-2.8,2.6-3.6.9-.6,2.3.2,3.2,1,6.5,5.8,13.1,10,20.7,13.4,9.2,4.1,20,6.9,30.6,9.7,18.5,4.6,36.8,10.6,41.4,30.2h0c0,.1,0,.2,0,.2Z"/>
  <path class="st2" d="M171.1,67.3c7.4,1.1,13.6,2.8,18,4.8,8,3.7,11.1,9.2,2.9,14.3-16.1,9.3-45.7,9.1-63.9,4.3-5.6-1.5-18.7-6.2-14.4-13.4,9.1-11.6,42.7-12.4,57.2-10.1h.2ZM186.7,84.1c6.6-2.4,6.6-5.5.5-7.8-5-1.9-11.1-2.8-16.6-3.5-14.2-1.4-35.1-1.4-48.4,3.9-7.2,3.4-1.6,6.7,4.3,8.2,16.5,4.3,44.7,4.4,60.2-.7h.1Z"/>
</svg>