<?xml version="1.0" encoding="UTF-8"?>
<svg id="Layer_1" xmlns="http://www.w3.org/2000/svg" version="1.1" viewBox="0 0 838 838">
  <!-- Generator: Adobe Illustrator 30.2.1, SVG Export Plug-In . SVG Version: 2.1.1 Build 1)  -->
  <defs>
    <style>
      .st0 {
        fill: #fff;
      }

      .st1 {
        fill: #1a1a1a;
        stroke: #eff8f9;
        stroke-linecap: round;
        stroke-linejoin: round;
      }
    </style>
  </defs>
  <rect class="st1" x="-21" y="-14" width="890" height="868"/>
  <path class="st0" d="M352.1,393.2h23.3c.4,0,3.3,5.6,4.4,8.6,30.2,85.7,60.4,171.3,90.7,257,29.1-88.8,58.3-177.5,87.4-266.3h17.1l87.4,266.3,93.8-265.4h22.9l-108.3,300.4h-17.8l-87.4-259-87.4,259h-17.8l-108.3-300.4.2-.2Z"/>
  <path class="st0" d="M386.7,422.9c-.5,7.3-13.8,9.5-18.9,5.3-1.6-1.3-2.7-3.5-3.6-6-14.6-53-65-66.1-115.1-79.7-28.2-8-59.7-16.9-87.2-25.1-26.8-8.4-51.5-21.1-76.1-36-3.6-2-7.8-3.1-10.4,0-1.3,1.8-1.5,4.6-1.1,7.3,16.2,70.6,109.2,94.3,170.2,110.1,6.2,1.3,13.3,7.6,12.9,13.8-2.4,21.8-79.4-11.1-98.3-18.4-8.7-3.6-16.6-6.9-22.9-9.6-7.8-3.6-13.8.4-10.9,9.1,14.7,40.4,70.8,64.6,110.9,71.4,10.9,1.8,31.1,5.3,40.2,6.7,2,.4,3.8.7,5.8,1.6,4.9,2,9.8,8.7,6,13.8-8,9.6-31.7,5.3-43.7,2.5-8-2-29.1-7.3-41.5-10.4-3.5-.7-5.5-1.6-7.8-1.3-3.3.5-5.5,4-4.9,7.3,2.7,11.5,12.4,20.6,21.5,27.7,6.6,4.9,13.3,8.6,21.1,12.2,38.6,17.3,75.4,9.5,81.4,21.7,1.3,2.9.4,6-2.9,8.6-8.6,6-19.3,4.6-29.3,4.7-4.2,0-7.6-.4-11.5-1.1-48.8-9.8-101-35-110.1-89-.7-6-2.5-11.7-7.6-15.1-29.3-21.7-53.3-48.6-55.5-85.7-.2-3.5-.4-7.5-2.2-10.4-1.5-2.4-3.8-4.4-6.2-6.2-26.4-22.2-37.1-60.6-44.1-92.7-.2-4.4-.5-9.5.7-13.7,1.5-4.4,4.9-9.6,9.1-12.4,3.3-2,7.8.5,10.9,3.5,22.6,20,45.3,34.8,71.7,46.6,31.9,14.4,69.4,24,105.9,33.5,64.3,16,127.4,36.8,143.6,104.7v.4l-.2.4Z"/>
  <path class="st0" d="M625.9,214.1c25.5,3.6,47.1,9.6,62.3,16.7,27.9,12.7,38.6,32,10.2,49.7-55.9,32.2-158.4,31.7-221.4,14.7-19.3-5.3-64.8-21.5-50.1-46.4,31.5-40,148-43.1,198.4-35.1h.5v.4ZM679.8,272.4c22.8-8.2,22.8-18.9,1.6-27.1-17.5-6.7-38.4-9.8-57.7-12-49.3-4.9-121.8-4.9-167.7,13.5-25.1,11.7-5.5,23.1,14.7,28.4,57.2,14.9,154.9,15.1,208.6-2.5h.2l.2-.2Z"/>
</svg>