<?xml version="1.0" encoding="UTF-8"?>
<svg id="Layer_1" xmlns="http://www.w3.org/2000/svg" version="1.1" viewBox="0 0 1780.8 297">
  <!-- Generator: Adobe Illustrator 30.2.1, SVG Export Plug-In . SVG Version: 2.1.1 Build 1)  -->
  <defs>
    <style>
      .st0 {
        fill: #fff;
      }

      .st1 {
        isolation: isolate;
      }
    </style>
  </defs>
  <g class="st1">
    <path class="st0" d="M679.7,115.2h12.8c.2,0,1.8,3.1,2.4,4.7,16.6,47.1,33.2,94.1,49.8,141.2,16-48.8,32-97.5,48-146.3h9.4l48,146.3,51.5-145.8h12.6l-59.5,165h-9.8l-48-142.3-48,142.3h-9.8l-59.5-165h0Z"/>
    <path class="st0" d="M991.4,114h11.7l76.3,165h-13.3l-20.8-45.9h-96.7l-20.8,45.9h-12.6l76.3-165h0ZM1040.1,222.1l-43.1-94.8-43.3,94.8h86.4Z"/>
    <path class="st0" d="M1114.1,115.2h68.8c20.1,0,36.3,6.3,46.1,16.2,7.7,7.7,12.4,18.7,12.4,30.4v.5c0,27.4-20.4,43.1-48,46.8l54.1,70h-15.4l-52.2-67.9h-53.6v67.9h-12.2V115.2h0ZM1181.5,200.1c27.4,0,47.8-13.8,47.8-37.5v-.5c0-22-17.3-35.8-47-35.8h-55.9v73.7h55.2,0Z"/>
    <path class="st0" d="M1283.3,115.2h54.5c51.5,0,87.1,35.3,87.1,81.5v.5c0,46.1-35.6,81.9-87.1,81.9h-54.5V115.2ZM1295.5,126.4v141.4h42.4c45.6,0,74.4-31.1,74.4-70.2v-.5c0-38.9-28.8-70.7-74.4-70.7,0,0-42.4,0-42.4,0Z"/>
    <path class="st0" d="M1466.4,115.2h116.6v11.2h-104.4v64.4h93.9v11.2h-93.9v65.8h105.6v11.2h-117.7V115.2h0Z"/>
    <path class="st0" d="M1623.2,115.2h11.5l113.1,142.5V115.2h11.7v163.8h-9.1l-115.4-145.6v145.6h-11.7V115.2h0Z"/>
  </g>
  <path class="st0" d="M698.7,131.5c-.3,4-7.6,5.2-10.4,2.9-.9-.7-1.5-1.9-2-3.3-8-29.1-35.7-36.3-63.2-43.8-15.5-4.4-32.8-9.3-47.9-13.8-14.7-4.6-28.3-11.6-41.8-19.8-2-1.1-4.3-1.7-5.7,0-.7,1-.8,2.5-.6,4,8.9,38.8,60,51.8,93.5,60.5,3.4.7,7.3,4.2,7.1,7.6-1.3,12-43.6-6.1-54-10.1-4.8-2-9.1-3.8-12.6-5.3-4.3-2-7.6.2-6,5,8.1,22.2,38.9,35.5,60.9,39.2,6,1,17.1,2.9,22.1,3.7,1.1.2,2.1.4,3.2.9,2.7,1.1,5.4,4.8,3.3,7.6-4.4,5.3-17.4,2.9-24,1.4l-22.8-5.7c-1.9-.4-3-.9-4.3-.7-1.8.3-3,2.2-2.7,4,1.5,6.3,6.8,11.3,11.8,15.2,3.6,2.7,7.3,4.7,11.6,6.7,21.2,9.5,41.4,5.2,44.7,11.9.7,1.6.2,3.3-1.6,4.7-4.7,3.3-10.6,2.5-16.1,2.6-2.3,0-4.2-.2-6.3-.6-26.8-5.4-55.5-19.2-60.5-48.9-.4-3.3-1.4-6.4-4.2-8.3-16.1-11.9-29.3-26.7-30.5-47.1,0-1.9-.2-4.1-1.2-5.7-.8-1.3-2.1-2.4-3.4-3.4-14.5-12.2-20.4-33.3-24.2-50.9-.1-2.4-.3-5.2.4-7.5.8-2.4,2.7-5.3,5-6.8,1.8-1.1,4.3.3,6,1.9,12.4,11,24.9,19.1,39.4,25.6,17.5,7.9,38.1,13.2,58.2,18.4,35.3,8.8,70,20.2,78.9,57.5v.4Z"/>
  <path class="st0" d="M830.1,16.8c14,2,25.9,5.3,34.2,9.2,15.3,7,21.2,17.6,5.6,27.3-30.7,17.7-87,17.4-121.6,8.1-10.6-2.9-35.6-11.8-27.5-25.5,17.3-22,81.3-23.7,109-19.3h.3v.2ZM859.7,48.8c12.5-4.5,12.5-10.4.9-14.9-9.6-3.7-21.1-5.4-31.7-6.6-27.1-2.7-66.9-2.7-92.1,7.4-13.8,6.4-3,12.7,8.1,15.6,31.4,8.2,85.1,8.3,114.6-1.4h.2Z"/>
  <g>
    <path class="st0" d="M450.5,248.6c-8,.3-15.8-2.8-21.4-8.5l86.8-50.2c2.6-1.5,3.5-4.7,2-7.3h0c-32-68-134.4-50.7-135.5,26.3-2.5,52.8,57.9,87.2,103.1,61.6,5.6-2.2,29.3-20.6,23.8-26.6h0l-21-13.3c-9.1,11.6-23,18.2-37.7,17.9h-.1ZM415.5,194.8c9-22.7,43.5-32.5,60.2-12.8l-61,35.7c-2.8-7.4-2.5-15.6.8-22.8h0Z"/>
    <path class="st0" d="M156.7,276.2h25.8c1.5,0,2.7-1.2,2.7-2.7h0v-105.8c0-1.5-1.3-2.7-2.8-2.6-.4,0-.8.1-1.1.3l-27.1,15.6v92.2c-.1,1.5,1,2.8,2.5,2.9h0Z"/>
    <path class="st0" d="M326.1,154.7c-40.8-38.3-112.7.2-109,54.6-2,37.5,31.3,71.4,68.9,69.6,15.2,4.2,58.7-26.9,71.3-32.9V68.2c0-1.5-1.3-2.7-2.8-2.6-.4,0-.8,0-1.1.3l-27.4,15.6v73.2h.1ZM315,236.8c-37.2,35.9-90.5-18.2-55.8-55.5,37.8-35.8,90.5,17.2,55.7,55.4h0Z"/>
    <g>
      <path class="st0" d="M74.5,95.9h31.3v-27.7c0-1.5-1.2-2.7-2.7-2.7H11.7c-1.5,0-2.7,1.2-2.7,2.7v25c-2.7,6,64.2,1.3,65.5,2.7h0Z"/>
      <path class="st0" d="M169,65.5h-10.2c-.1,0-52.9,30.4-53.1,30.4-.5,0-1.5.6-1.5.6-.6.3-29.8,17.1-29.8,17.1v146.5l27.4,15.9c1.3.7,3,.1,3.6-1.2.8-.8,0-177.9.3-178.9,1.8-1.4,67.9,3.3,65.6-2.7v-25c0-1.4-1-2.5-2.4-2.7h0Z"/>
    </g>
  </g>
</svg>